# xmcd CD database file
#
# Track frame offsets:
#	150
#	18585
#	37045
#	57275
#	76522
#	94490
#	109380
#	127832
#	144262
#
# Disc length: 2177 seconds
#
# Revision: 1
# Processed by: cddbd v1.5.2PL0 Copyright (c) Steve Scherf et al.
# Submitted via: CDex 1.70beta2
#
DISCID=70087f09
DTITLE=아낌없이 주는 나무 - Unknown CD for MusicBrainz and FreeDB
DYEAR=1994
DGENRE=Ballad
TTITLE0=유년시절의 기행(솔로)
TTITLE1=유년시절의 기행(듀엣)
TTITLE2=우수(雨水)
TTITLE3=song 7 bar
TTITLE4=이별뒤 아픔
TTITLE5=소녀
TTITLE6=유년시절의 기행(테너)
TTITLE7=추억의 시간이 흐르면
TTITLE8=song 7 bar(경음악)
EXTD=어쩌다 구한 앨범이고\n정보제공자(?) 는 윤의성 YEAR: 1994
EXTT0=
EXTT1=
EXTT2=
EXTT3=
EXTT4=
EXTT5=
EXTT6=
EXTT7=
EXTT8=
PLAYORDER=
